<svg width="43" height="43" viewBox="0 0 43 43" fill="none" xmlns="http://www.w3.org/2000/svg">
<path d="M0.5 21.5C0.5 33.098 9.90202 42.5 21.5 42.5C33.098 42.5 42.5 33.098 42.5 21.5C42.5 9.90202 33.098 0.5 21.5 0.5C9.90202 0.5 0.5 9.90202 0.5 21.5Z" stroke="black"/>
<path fill-rule="evenodd" clip-rule="evenodd" d="M25.4345 17.9781L28.2659 20.7827C28.4397 20.9548 28.4397 21.2339 28.2659 21.406L25.4345 24.2105C25.2607 24.3827 24.979 24.3827 24.8053 24.2105C24.6315 24.0384 24.6315 23.7594 24.8053 23.5873L26.8772 21.535L14.6038 21.535L14.6038 20.6536L26.8772 20.6536L24.8053 18.6014C24.6315 18.4293 24.6315 18.1502 24.8053 17.9781C24.979 17.806 25.2607 17.806 25.4345 17.9781Z" fill="black"/>
</svg>
