<svg width="43" height="43" viewBox="0 0 43 43" fill="none" xmlns="http://www.w3.org/2000/svg">
<path d="M42.5 21.5C42.5 33.098 33.098 42.5 21.5 42.5C9.90202 42.5 0.5 33.098 0.5 21.5C0.5 9.90202 9.90202 0.5 21.5 0.5C33.098 0.5 42.5 9.90202 42.5 21.5Z" stroke="black"/>
<path fill-rule="evenodd" clip-rule="evenodd" d="M17.5655 17.9781L14.7341 20.7827C14.5603 20.9548 14.5603 21.2339 14.7341 21.406L17.5655 24.2105C17.7393 24.3827 18.021 24.3827 18.1947 24.2105C18.3685 24.0384 18.3685 23.7594 18.1947 23.5873L16.1228 21.535L28.3962 21.535L28.3962 20.6536L16.1228 20.6536L18.1947 18.6014C18.3685 18.4293 18.3685 18.1502 18.1947 17.9781C18.021 17.806 17.7393 17.806 17.5655 17.9781Z" fill="black"/>
</svg>
